<svg width="1280" height="720" viewBox="0 0 1280 720" fill="none" xmlns="http://www.w3.org/2000/svg">
  <defs>
    <linearGradient id="bg" x1="0" y1="0" x2="1280" y2="720" gradientUnits="userSpaceOnUse">
      <stop stop-color="#1E242E"/>
      <stop offset="0.46" stop-color="#273849"/>
      <stop offset="1" stop-color="#442838"/>
    </linearGradient>
    <linearGradient id="page" x1="184" y1="74" x2="1056" y2="646" gradientUnits="userSpaceOnUse">
      <stop stop-color="#F6F0E8"/>
      <stop offset="1" stop-color="#D9E8F1"/>
    </linearGradient>
    <linearGradient id="surface" x1="694" y1="76" x2="1162" y2="646" gradientUnits="userSpaceOnUse">
      <stop stop-color="#2F3440" stop-opacity="0.9"/>
      <stop offset="1" stop-color="#1B1D24" stop-opacity="0.92"/>
    </linearGradient>
    <filter id="shadow" x="-20%" y="-20%" width="140%" height="140%" color-interpolation-filters="sRGB">
      <feDropShadow dx="0" dy="24" stdDeviation="32" flood-color="#000000" flood-opacity="0.34"/>
    </filter>
    <filter id="soft" x="-20%" y="-20%" width="140%" height="140%" color-interpolation-filters="sRGB">
      <feGaussianBlur stdDeviation="18"/>
    </filter>
  </defs>
  <rect width="1280" height="720" fill="url(#bg)"/>
  <circle cx="1040" cy="154" r="116" fill="#7AB7FF" opacity="0.18" filter="url(#soft)"/>
  <circle cx="238" cy="612" r="136" fill="#F4B1C3" opacity="0.16" filter="url(#soft)"/>
  <rect x="56" y="42" width="1168" height="636" rx="28" fill="#171A21" opacity="0.64"/>
  <rect x="88" y="74" width="124" height="572" rx="22" fill="#11141A" opacity="0.78"/>
  <rect x="236" y="74" width="820" height="572" rx="18" fill="url(#page)"/>
  <rect x="288" y="132" width="232" height="28" rx="14" fill="#253142" opacity="0.28"/>
  <rect x="288" y="196" width="444" height="18" rx="9" fill="#253142" opacity="0.18"/>
  <rect x="288" y="232" width="520" height="18" rx="9" fill="#253142" opacity="0.14"/>
  <rect x="288" y="268" width="386" height="18" rx="9" fill="#253142" opacity="0.14"/>
  <rect x="288" y="342" width="252" height="168" rx="20" fill="#253142" opacity="0.14"/>
  <rect x="570" y="342" width="252" height="168" rx="20" fill="#253142" opacity="0.1"/>
  <rect x="1118" y="74" width="50" height="572" rx="20" fill="#202632" opacity="0.68"/>
  <circle cx="1143" cy="126" r="17" fill="#4285F4"/>
  <circle cx="1143" cy="178" r="17" fill="#34A853"/>
  <rect x="1126" y="225" width="34" height="3" rx="1.5" fill="#E8EEF7" opacity="0.56"/>
  <circle cx="1143" cy="598" r="18" fill="#E8EEF7" opacity="0.12"/>
  <path d="M1143 588V608M1133 598H1153" stroke="#E8EEF7" stroke-width="2.4" stroke-linecap="round"/>
  <rect x="694" y="88" width="412" height="544" rx="22" fill="url(#surface)" stroke="#FFFFFF" stroke-opacity="0.18" filter="url(#shadow)"/>
  <rect x="720" y="118" width="360" height="38" rx="19" fill="#FFFFFF" opacity="0.08"/>
  <rect x="720" y="184" width="284" height="24" rx="12" fill="#FFFFFF" opacity="0.28"/>
  <rect x="720" y="232" width="316" height="16" rx="8" fill="#FFFFFF" opacity="0.16"/>
  <rect x="720" y="264" width="248" height="16" rx="8" fill="#FFFFFF" opacity="0.13"/>
  <rect x="720" y="330" width="332" height="196" rx="20" fill="#FFFFFF" opacity="0.08"/>
  <rect x="748" y="358" width="178" height="18" rx="9" fill="#FFFFFF" opacity="0.22"/>
  <rect x="748" y="398" width="250" height="14" rx="7" fill="#FFFFFF" opacity="0.13"/>
  <rect x="748" y="430" width="216" height="14" rx="7" fill="#FFFFFF" opacity="0.11"/>
  <rect x="748" y="462" width="186" height="14" rx="7" fill="#FFFFFF" opacity="0.1"/>
  <text x="88" y="692" fill="#DCE8F5" opacity="0.8" font-family="Avenir Next, Helvetica, Arial, sans-serif" font-size="18">Web Panels for Sine</text>
</svg>
